<?xml version="1.0" standalone="no"?><!DOCTYPE svg PUBLIC "-//W3C//DTD SVG 1.1//EN" "http://www.w3.org/Graphics/SVG/1.1/DTD/svg11.dtd"><svg t="1647940976490" class="icon" viewBox="0 0 1024 1024" version="1.1" xmlns="http://www.w3.org/2000/svg" p-id="7785" xmlns:xlink="http://www.w3.org/1999/xlink" width="200" height="200"><defs><style type="text/css"></style></defs><path d="M507.469576 172.528485c-188.509091 0-341.333333 152.824242-341.333334 341.333333s152.824242 341.333333 341.333334 341.333334 341.333333-152.824242 341.333333-341.333334-152.824242-341.333333-341.333333-341.333333z m-403.39394 341.333333c0-222.797576 180.596364-403.393939 403.39394-403.393939s403.393939 180.596364 403.393939 403.393939-180.596364 403.393939-403.393939 403.39394-403.393939-180.596364-403.39394-403.39394z" fill="#BFBFBF" p-id="7786" data-spm-anchor-id="a313x.7781069.0.i7" class="selected"></path><path d="M512.403394 358.896485a62.060606 62.060606 0 0 0-62.122667 37.732848 31.030303 31.030303 0 0 1-57.157818-24.172606 124.121212 124.121212 0 1 1 217.274182 117.69794l-25.755152-17.314909 24.824243 18.618181-133.026909 177.524364h124.121212a31.030303 31.030303 0 1 1 0 62.060606h-184.940606a30.999273 30.999273 0 0 1-32.271515-30.999273c0-7.354182 2.544485-14.056727 6.795636-19.362909l169.177212-225.776485a62.060606 62.060606 0 0 0-46.917818-96.007757z" fill="#BFBFBF" p-id="7787"></path></svg>