<?xml version="1.0" standalone="no"?><!DOCTYPE svg PUBLIC "-//W3C//DTD SVG 1.1//EN" "http://www.w3.org/Graphics/SVG/1.1/DTD/svg11.dtd"><svg t="1647940842105" class="icon" viewBox="0 0 1024 1024" version="1.1" xmlns="http://www.w3.org/2000/svg" p-id="7546" xmlns:xlink="http://www.w3.org/1999/xlink" width="200" height="200"><defs><style type="text/css"></style></defs><path d="M507.469576 172.528485c-188.509091 0-341.333333 152.824242-341.333334 341.333333s152.824242 341.333333 341.333334 341.333334 341.333333-152.824242 341.333333-341.333334-152.824242-341.333333-341.333333-341.333333z m-403.39394 341.333333c0-222.797576 180.596364-403.393939 403.39394-403.393939s403.393939 180.596364 403.393939 403.393939-180.596364 403.393939-403.393939 403.39394-403.393939-180.596364-403.39394-403.39394z" fill="#BFBFBF" p-id="7547"></path><path d="M537.63103 315.826424a31.030303 31.030303 0 0 1 16.384 27.368728v356.848484a31.030303 31.030303 0 0 1-62.060606 0v-298.883878l-44.838788 29.882181a31.030303 31.030303 0 1 1-34.443636-51.634424l93.090909-62.060606a31.030303 31.030303 0 0 1 31.868121-1.520485z" fill="#BFBFBF" p-id="7548"></path></svg>